<?xml version="1.0" encoding="UTF-8"?>
<svg version="1.1" xmlns="http://www.w3.org/2000/svg" width="1024" height="1024">
<path d="M0 0 C337.92 0 675.84 0 1024 0 C1024 337.92 1024 675.84 1024 1024 C686.08 1024 348.16 1024 0 1024 C0 686.08 0 348.16 0 0 Z " fill="#000D29" transform="translate(0,0)"/>
<path d="M0 0 C101.64 0 203.28 0 308 0 C308 24.09 308 48.18 308 73 C268.4 73 228.8 73 188 73 C188 168.04 188 263.08 188 361 C78 361 78 361 73 357 C71.67651367 354.59448242 71.67651367 354.59448242 70.66796875 351.85546875 C70.27077637 350.8072998 69.87358398 349.75913086 69.46435547 348.67919922 C69.04299316 347.52693848 68.62163086 346.37467773 68.1875 345.1875 C67.21799517 342.63025051 66.24546021 340.07431993 65.26953125 337.51953125 C65.01119507 336.83910767 64.75285889 336.15868408 64.48669434 335.4576416 C61.27598473 327.0316601 57.81773902 318.70813487 54.375 310.375 C53.01687872 307.07998228 51.66046325 303.7842647 50.3046875 300.48828125 C49.78770042 299.23174744 49.78770042 299.23174744 49.26026917 297.9498291 C44.96701912 287.50356422 40.73308731 277.03325496 36.5 266.5625 C35.93113068 265.15553864 35.93113068 265.15553864 35.35076904 263.72015381 C33.23256161 258.48062079 31.11567193 253.24055732 29 248 C19.45548539 247.81443881 9.91159374 247.67239454 0.36566734 247.58550262 C-4.06725505 247.54379264 -8.4989414 247.48724637 -12.93115234 247.39648438 C-17.21064721 247.30940058 -21.48895538 247.26169433 -25.76926804 247.24098206 C-27.40007588 247.22622753 -29.03082045 247.19741251 -30.66112137 247.15415955 C-39.46441405 246.59478375 -39.46441405 246.59478375 -47.28939819 249.76309204 C-48.80144235 251.7823949 -49.88991136 253.744003 -51 256 C-57.12248211 261.44921947 -63.35431506 263.57766501 -71.4375 264.3125 C-80.01906512 263.55973113 -87.1450988 260.18582569 -93.125 253.9375 C-97.74108849 248.2767178 -100.84812667 240.48018762 -100.37890625 233.09375 C-98.64901176 223.53474542 -94.65827043 216.21798341 -86.8515625 210.3984375 C-79.65950349 206.12143231 -72.15947535 205.81378344 -64 207 C-57.01395286 209.2674713 -51.48420511 212.47966373 -47.28125 218.58203125 C-45.54729519 220.50101173 -44.57272336 220.55649157 -42 221 C-39.26040351 221.09271292 -36.54600334 221.13340668 -33.80664062 221.12597656 C-32.98342819 221.1278447 -32.16021576 221.12971283 -31.3120575 221.13163757 C-29.52727064 221.13563605 -27.74247868 221.1377159 -25.95768738 221.13809967 C-22.16477142 221.14151876 -18.37202635 221.16288101 -14.57917023 221.18333054 C-7.51873957 221.22135345 -0.45849402 221.25261022 6.60205078 221.25048828 C11.51522315 221.2497024 16.42776638 221.27300733 21.34077454 221.3123703 C23.21305007 221.32284709 25.08539805 221.32434201 26.95768738 221.31671906 C29.57470147 221.30712374 32.18979974 221.32822566 34.80664062 221.35644531 C35.58078812 221.34624863 36.35493561 221.33605194 37.15254211 221.32554626 C40.99238318 221.39989334 42.63727933 221.64584634 45.43171692 224.37428284 C47.03882276 227.06499948 48.28467982 229.65191216 49.41796875 232.57421875 C49.85882812 233.69505859 50.2996875 234.81589844 50.75390625 235.97070312 C51.22699219 237.19724609 51.70007813 238.42378906 52.1875 239.6875 C52.97201463 241.69038198 53.75994668 243.69189951 54.54800415 245.69338989 C55.11535779 247.13480216 55.68171633 248.57660645 56.24716187 250.01876831 C59.56541296 258.47243791 62.98578073 266.88447922 66.40289307 275.29855347 C70.83470062 286.21115532 75.26568361 297.12383418 79.61328125 308.0703125 C79.89005707 308.76638611 80.16683289 309.46245972 80.45199585 310.17962646 C81.72137898 313.37315275 82.98695729 316.56803595 84.24609375 319.765625 C84.68695312 320.87679688 85.1278125 321.98796875 85.58203125 323.1328125 C85.95561768 324.08043457 86.3292041 325.02805664 86.71411133 326.00439453 C88.31823953 329.74137063 90.18130719 333.36261439 92 337 C98.27 337.33 104.54 337.66 111 338 C111 250.55 111 163.1 111 73 C83.61 73 56.22 73 28 73 C24.8796989 66.13533758 21.89707885 59.40522361 19.2578125 52.37109375 C18.92635223 51.49711441 18.59489197 50.62313507 18.25338745 49.72267151 C17.20718784 46.96222137 16.16587174 44.19996292 15.125 41.4375 C14.09411083 38.71057701 13.06217063 35.98405467 12.02972412 33.25772095 C11.35204575 31.46780089 10.67515722 29.67758158 9.99908447 27.88705444 C8.33515284 23.48772544 6.65292484 19.09685965 4.93261719 14.71923828 C4.60582977 13.88707291 4.27904236 13.05490753 3.94235229 12.19752502 C3.32315571 10.62544983 2.70100489 9.05453402 2.07546997 7.48497009 C0 2.21836868 0 2.21836868 0 0 Z " fill="#FEC800" transform="translate(493,181)"/>
<path d="M0 0 C0.84929077 -0.00073013 1.69858154 -0.00146027 2.5736084 -0.00221252 C5.37158817 0.00126179 8.16788845 0.04011458 10.96557617 0.0793457 C12.90898224 0.0886744 14.8524001 0.09579025 16.79582214 0.1007843 C21.90396752 0.11984957 27.01139889 0.16894657 32.1192627 0.2243042 C37.33421165 0.2755067 42.54927628 0.2983005 47.7644043 0.32348633 C57.99193106 0.37706554 68.21892855 0.46237287 78.44604492 0.56762695 C79.08213342 1.81910025 79.71579448 3.07180749 80.34846497 4.32501221 C80.87817005 5.37120916 80.87817005 5.37120916 81.41857624 6.43854141 C83.00721871 9.73047212 84.26714675 13.12133107 85.52026367 16.55200195 C85.80074554 17.30740265 86.08122742 18.06280334 86.37020874 18.84109497 C86.97640017 20.47418614 87.58073346 22.10796802 88.18338013 23.74237061 C89.84582288 28.24813242 91.52481116 32.74771851 93.20385742 37.24731445 C93.5537825 38.18556061 93.90370758 39.12380676 94.26423645 40.09048462 C97.93253632 49.90557023 101.71513919 59.67536897 105.50854492 69.44262695 C113.404967 89.78695381 121.15254798 110.1864733 128.87207031 130.59838867 C129.76382184 132.9553579 130.65566513 135.31229241 131.54760742 137.66918945 C131.97180466 138.79054291 132.39600189 139.91189636 132.83305359 141.06723022 C135.67020944 148.55489943 138.54642503 156.02631997 141.48574829 163.47451782 C143.44604492 168.46384995 143.44604492 168.46384995 143.44604492 169.56762695 C118.69604492 169.56762695 93.94604492 169.56762695 68.44604492 169.56762695 C64.42416992 158.61575195 64.42416992 158.61575195 60.32104492 147.44262695 C51.8393991 124.3528771 51.8393991 124.3528771 43.34747314 101.26690674 C42.74936944 99.64179307 42.15150739 98.01659044 41.55389404 96.39129639 C40.72695918 94.14253003 39.89912819 91.89409563 39.07104492 89.64575195 C38.83225616 88.99585297 38.59346741 88.34595398 38.34744263 87.67636108 C37.09724911 84.28535322 35.80637495 80.9160094 34.44604492 77.56762695 C31.96870116 80.04497072 31.40920548 82.10488086 30.26635742 85.41918945 C29.62525024 87.25815796 29.62525024 87.25815796 28.97119141 89.13427734 C28.63050125 90.12260056 28.63050125 90.12260056 28.28292847 91.13088989 C27.05425797 94.68933077 25.80229297 98.23956524 24.55151367 101.7902832 C24.16326164 102.89372322 24.16326164 102.89372322 23.76716614 104.01945496 C14.76488673 129.5453199 4.74804371 154.70270936 -5.14880371 179.89060974 C-7.64133483 186.23617526 -10.12397028 192.58550098 -12.59692383 198.9387207 C-12.92032745 199.76951141 -13.24373108 200.60030212 -13.57693481 201.45626831 C-13.89870697 202.28288971 -14.22047913 203.10951111 -14.55200195 203.96118164 C-26.44507591 234.51366585 -38.51537282 264.9968728 -50.67895508 295.44262695 C-51.05473694 296.38409073 -51.05473694 296.38409073 -51.43811035 297.34457397 C-52.12416353 299.0625535 -52.81166821 300.77995318 -53.49926758 302.49731445 C-53.87583496 303.43816895 -54.25240234 304.37902344 -54.64038086 305.34838867 C-55.55395508 307.56762695 -55.55395508 307.56762695 -56.55395508 309.56762695 C-40.21172917 309.60054702 -23.87008241 309.5935771 -7.52793598 309.53916073 C0.06011422 309.51482324 7.64776507 309.50352355 15.23583984 309.52294922 C21.84992066 309.53984832 28.46344293 309.53225175 35.0774501 309.49527937 C38.57951903 309.47655721 42.08064346 309.47007567 45.58270836 309.49293327 C49.49297581 309.51799609 53.40179173 309.48836705 57.31201172 309.45410156 C58.47222839 309.46991776 59.63244507 309.48573395 60.82781982 309.50202942 C66.45960197 309.57957161 66.45960197 309.57957161 71.21256447 307.01916695 C72.56880158 305.18696205 72.56880158 305.18696205 73.52787495 303.25920963 C74.94169187 300.65447599 77.02862102 299.59990135 79.57104492 298.19262695 C80.84334961 297.46946289 80.84334961 297.46946289 82.14135742 296.73168945 C88.96989281 293.28270039 98.48386304 293.27035899 105.75854492 295.56762695 C112.98037293 298.9305812 118.19472996 304.17211136 121.50854492 311.38012695 C124.68216487 320.14064034 124.56701945 327.78031014 120.69995117 336.2824707 C116.61056591 343.73508871 110.66223612 348.59937403 102.49682617 351.18481445 C95.07072095 352.57102076 87.16703345 352.16645414 80.44604492 348.56762695 C76.36962805 345.56873428 72.43266634 342.57230462 70.16970348 337.97427845 C68.67477215 335.34019468 68.67477215 335.34019468 65.95293903 334.93677044 C64.95279365 334.93400506 63.95264826 334.93123968 62.92219543 334.9283905 C61.77374649 334.91310303 60.62529755 334.89781555 59.44204712 334.88206482 C57.5506752 334.89500328 57.5506752 334.89500328 55.62109375 334.90820312 C54.28075162 334.89975173 52.94042177 334.88910845 51.60011292 334.87643433 C47.95974021 334.84823683 44.31995566 334.85076829 40.67950654 334.85872817 C36.87574165 334.86184869 33.07216559 334.83683233 29.26847839 334.81477356 C22.06493692 334.77728701 14.86158425 334.76518287 7.65795487 334.76214916 C-0.54277532 334.7574633 -8.74331581 334.72455526 -16.94396245 334.6892513 C-33.81394601 334.61725926 -50.68382519 334.58079088 -67.55395508 334.56762695 C-67.75270737 335.16732803 -67.95145966 335.76702911 -68.15623474 336.38490295 C-68.42081985 337.18133713 -68.68540497 337.9777713 -68.95800781 338.79833984 C-69.2186351 339.58366592 -69.47926239 340.368992 -69.74778748 341.17811584 C-70.97351817 344.81122773 -72.28182588 348.41084424 -73.61645508 352.00512695 C-74.00027344 353.06376953 -74.00027344 353.06376953 -74.3918457 354.14379883 C-76.32012624 359.33379812 -76.32012624 359.33379812 -78.55395508 361.56762695 C-81.0234458 361.75535961 -83.37975491 361.81958999 -85.84936523 361.79467773 C-86.60068222 361.79496979 -87.35199921 361.79526184 -88.12608337 361.79556274 C-90.61517799 361.79416683 -93.1039751 361.77859353 -95.59301758 361.76293945 C-97.31651648 361.75921025 -99.04001751 361.75636284 -100.76351929 361.75436401 C-105.30425855 361.74672025 -109.84487028 361.72706543 -114.38555908 361.70495605 C-119.01719436 361.68451359 -123.64885021 361.67536573 -128.28051758 361.6652832 C-137.37171951 361.6438202 -146.4628267 361.60967534 -155.55395508 361.56762695 C-153.83557142 356.26208941 -152.0155293 351.05379927 -149.86645508 345.90356445 C-149.48524254 344.98499413 -149.48524254 344.98499413 -149.09632874 344.04786682 C-148.54348561 342.71596059 -147.98937316 341.38458064 -147.43411255 340.05368042 C-145.86041085 336.27916445 -144.29920459 332.49948301 -142.73754883 328.7199707 C-142.40113876 327.90611404 -142.0647287 327.09225739 -141.71812439 326.2537384 C-137.6333601 316.35815935 -133.62375074 306.43227234 -129.61645508 296.50512695 C-129.01921631 295.02589752 -129.01921631 295.02589752 -128.40991211 293.51678467 C-126.31526608 288.32820141 -124.22163678 283.13920883 -122.12866211 277.94995117 C-119.57330665 271.61463018 -117.01493436 265.28053002 -114.45629883 258.9465332 C-108.48253901 244.15610844 -102.51684474 229.36243654 -96.55395508 214.56762695 C-96.22641739 213.75499893 -95.8988797 212.94237091 -95.56141663 212.1051178 C-90.69464672 200.03042968 -85.83028604 187.9547736 -80.96826172 175.87817383 C-79.47291804 172.16406975 -77.9769829 168.45020488 -76.48046875 164.73657227 C-66.38401654 139.68034857 -56.39048161 114.58517679 -46.48155212 89.45420837 C-44.49294128 84.41152958 -42.50053322 79.3703561 -40.50708008 74.32958984 C-40.20742309 73.57184769 -39.90776609 72.81410553 -39.59902859 72.03340149 C-38.08741686 68.21166218 -36.57477266 64.39033365 -35.06124878 60.5693512 C-32.10765385 53.11132591 -29.19027731 45.64148198 -26.33638 38.14465332 C-24.89126829 34.34967233 -23.43707263 30.55819477 -21.98294067 26.7666626 C-21.286966 24.94314728 -20.59584502 23.11777116 -19.90988159 21.29046631 C-18.95676146 18.75184577 -17.98750281 16.21992571 -17.01489258 13.6887207 C-16.73838364 12.93845108 -16.46187469 12.18818146 -16.17698669 11.41517639 C-15.90483841 10.71581467 -15.63269012 10.01645294 -15.35229492 9.29589844 C-15.12440277 8.69325668 -14.89651062 8.09061493 -14.66171265 7.4697113 C-10.92843034 1.05944785 -7.10254611 -0.16049275 0 0 Z " fill="#FEC700" transform="translate(375.553955078125,181.432373046875)"/>
<path d="M0 0 C2.04945396 1.43973158 3.84430343 2.9560303 5.66015625 4.6796875 C6.27503906 5.25460937 6.88992188 5.82953125 7.5234375 6.421875 C16.15739179 15.33315117 18.98437736 26.71965664 18.8046875 38.82421875 C18.24230562 49.93506077 14.583848 60.46864059 6.28515625 68.1796875 C-5.23560613 77.49681412 -17.96078489 78.93467845 -32.33984375 77.6796875 C-42.65753204 75.59482741 -51.41592104 69.34584149 -57.33984375 60.6796875 C-63.55944366 49.13467935 -64.6265505 33.67570905 -61.21484375 20.9921875 C-57.61104491 11.49884703 -50.81076124 2.96740769 -41.6796875 -1.671875 C-39.25067362 -2.66637553 -36.84921945 -3.55319765 -34.33984375 -4.3203125 C-33.41945313 -4.60648438 -33.41945313 -4.60648438 -32.48046875 -4.8984375 C-21.56983308 -7.04870876 -9.68313074 -5.46393688 0 0 Z " fill="#FCC900" transform="translate(793.33984375,631.3203125)"/>
<path d="M0 0 C8.24084086 5.90520147 13.25050454 13.71971249 15.80859375 23.58203125 C17.5529112 35.57646156 16.82300202 49.12633095 9.68359375 59.31640625 C1.84964477 69.11395602 -6.78277369 74.07261082 -19.265625 75.90625 C-29.9382147 77.08481819 -40.00616291 75.32083731 -48.78515625 68.84375 C-58.20302665 61.14976725 -63.49905301 52.44633854 -64.8125 40.1875 C-65.78727805 27.37613137 -63.2492493 15.57425646 -55.35546875 5.2890625 C-41.17767218 -10.51003927 -17.03694527 -10.52115991 0 0 Z " fill="#FBC900" transform="translate(736.8125,754.8125)"/>
<path d="M0 0 C5.28 0 10.56 0 16 0 C19.35509959 3.4016982 21.34869703 5.81146459 23.66064453 9.79443359 C25.87726043 13.44461734 28.37331715 16.89667757 30.83203125 20.38647461 C32.85209986 23.2537821 34.84835751 26.13623143 36.83984375 29.0234375 C41.50283068 35.72237647 46.25589874 42.35825823 51 49 C51.33 33.16 51.66 17.32 52 1 C57.61 1 63.22 1 69 1 C69 27.4 69 53.8 69 81 C54 81 54 81 50.62109375 78.421875 C49.48242188 76.68359375 49.48242188 76.68359375 48.4375 74.75 C47.56210847 73.36921397 46.68575521 71.98903733 45.80859375 70.609375 C45.36112793 69.86494141 44.91366211 69.12050781 44.45263672 68.35351562 C41.82922955 64.1031551 38.8872445 60.07342177 36 56 C34.91637913 54.4376994 33.83304926 52.87519692 32.75 51.3125 C27.92450896 44.4763877 22.94833224 37.74772578 18 31 C17.67 47.5 17.34 64 17 81 C11.39 81 5.78 81 0 81 C0 54.27 0 27.54 0 0 Z " fill="#FAC800" transform="translate(826,627)"/>
<path d="M0 0 C47.95982143 0 47.95982143 0 57 9 C63.08472365 16.99187583 63.72357755 24.07209042 63 34 C61.56494586 41.10739653 58.10914498 45.5145652 52.8046875 50.30859375 C45.09780477 54.95633779 37.17584409 55.41479591 28.375 55.1875 C24.95125 55.125625 21.5275 55.06375 18 55 C18 63.25 18 71.5 18 80 C12.06 80 6.12 80 0 80 C0 53.6 0 27.2 0 0 Z " fill="#FCC800" transform="translate(295,628)"/>
<path d="M0 0 C17 0 17 0 21.30078125 3.77734375 C22.36496145 5.46077104 23.36744579 7.18442286 24.3125 8.9375 C25.44539401 10.77939713 26.57953081 12.62053037 27.71484375 14.4609375 C28.25995605 15.39131836 28.80506836 16.32169922 29.36669922 17.28027344 C31.8201257 21.36565027 34.58621717 25.20199302 37.375 29.0625 C38.3473277 30.43941721 39.31871519 31.81699894 40.2890625 33.1953125 C43.34967454 37.51222673 46.49367689 41.76495602 49.671875 45.99609375 C51 48 51 48 51 50 C51.66 50 52.32 50 53 50 C53 33.5 53 17 53 0 C58.28 0 63.56 0 69 0 C69 26.4 69 52.8 69 80 C64.05 80 59.1 80 54 80 C50.63876517 76.42050317 48.43944229 73.84594243 46.05810547 69.76171875 C44.30191057 66.83769882 42.26123885 64.12665529 40.25 61.375 C39.4176188 60.20820804 38.58694592 59.04019585 37.7578125 57.87109375 C34.56343936 53.38129032 31.3466356 48.9077684 28.125 44.4375 C27.5774707 43.67550293 27.02994141 42.91350586 26.46582031 42.12841797 C25.94342773 41.40412598 25.42103516 40.67983398 24.8828125 39.93359375 C24.42277832 39.29478271 23.96274414 38.65597168 23.48876953 37.99780273 C21.7173583 35.62071875 19.85192593 33.31490742 18 31 C17.67 47.17 17.34 63.34 17 80 C11.39 80 5.78 80 0 80 C0 53.6 0 27.2 0 0 Z " fill="#FBC900" transform="translate(587,750)"/>
<path d="M0 0 C48.05287447 0 48.05287447 0 57.33984375 9.0390625 C62.86344197 15.56340675 63.66491877 22.15485568 63.375 30.5625 C62.59023414 37.75618707 60.52186012 42.96566921 55.1875 47.9375 C48.70101338 53.0615833 41.949807 55.1459053 33.69921875 55.09765625 C32.81838623 55.09515869 31.93755371 55.09266113 31.0300293 55.09008789 C29.92699463 55.08098389 28.82395996 55.07187988 27.6875 55.0625 C22.3971875 55.0315625 22.3971875 55.0315625 17 55 C17 63.25 17 71.5 17 80 C11.39 80 5.78 80 0 80 C0 53.6 0 27.2 0 0 Z " fill="#FDCA00" transform="translate(219,628)"/>
<path d="M0 0 C5.61 0 11.22 0 17 0 C17 10.56 17 21.12 17 32 C28.55 32 40.1 32 52 32 C52 21.77 52 11.54 52 1 C57.61 1 63.22 1 69 1 C69 27.4 69 53.8 69 81 C63.39 81 57.78 81 52 81 C52 70.11 52 59.22 52 48 C40.45 48 28.9 48 17 48 C17 58.89 17 69.78 17 81 C11.39 81 5.78 81 0 81 C0 54.27 0 27.54 0 0 Z " fill="#FCCA00" transform="translate(497,749)"/>
<path d="M0 0 C0.74886475 0.00523682 1.49772949 0.01047363 2.26928711 0.01586914 C3.07817383 0.0190918 3.88706055 0.02231445 4.72045898 0.02563477 C5.5705957 0.03401367 6.42073242 0.04239258 7.29663086 0.05102539 C8.15063477 0.05553711 9.00463867 0.06004883 9.88452148 0.06469727 C12.00108749 0.07652166 14.11761771 0.0944577 16.23413086 0.11352539 C16.46248627 0.72199814 16.69084167 1.33047089 16.92611694 1.9573822 C19.35744183 8.43422537 21.79259533 14.90962053 24.22973633 21.38427734 C25.13236269 23.7836659 26.03409132 26.18339242 26.93481445 28.58349609 C32.20144092 42.6150836 37.55186238 56.6003737 43.21884155 70.47605896 C43.61527863 71.4528511 44.0117157 72.42964325 44.42016602 73.43603516 C44.7714859 74.29431412 45.12280579 75.15259308 45.48477173 76.03688049 C46.23413086 78.11352539 46.23413086 78.11352539 46.23413086 80.11352539 C40.29413086 80.11352539 34.35413086 80.11352539 28.23413086 80.11352539 C23.23413086 67.36352539 23.23413086 67.36352539 23.23413086 65.11352539 C6.89913086 65.60852539 6.89913086 65.60852539 -9.76586914 66.11352539 C-11.41586914 70.40352539 -13.06586914 74.69352539 -14.76586914 79.11352539 C-15.76586914 80.11352539 -15.76586914 80.11352539 -19.58227539 80.21118164 C-21.16433596 80.20450628 -22.74638073 80.19254415 -24.32836914 80.17602539 C-25.13467773 80.17151367 -25.94098633 80.16700195 -26.77172852 80.16235352 C-28.7698067 80.15053057 -30.76784697 80.13259453 -32.76586914 80.11352539 C-30.8665295 74.27634377 -28.83196398 68.51631005 -26.61352539 62.79321289 C-26.31700577 62.02334045 -26.02048615 61.25346802 -25.71498108 60.46026611 C-24.75481939 57.96889239 -23.79172238 55.47866656 -22.82836914 52.98852539 C-22.16075676 51.25924689 -21.49327773 49.52991689 -20.82592773 47.80053711 C-19.46958494 44.28661001 -18.11198624 40.7731714 -16.75366211 37.26000977 C-15.16907625 33.16004178 -13.59002001 29.05798102 -12.01408386 24.9546814 C-10.90230242 22.06043159 -9.78839885 19.16700163 -8.67404175 16.27374268 C-8.1531164 14.92002286 -7.63303176 13.56597922 -7.11380005 12.21160889 C-6.39874618 10.34723001 -5.68006758 8.48424252 -4.96118164 6.62133789 C-4.55915527 5.57606934 -4.15712891 4.53080078 -3.74291992 3.45385742 C-2.36445094 0.15200742 -2.36445094 0.15200742 0 0 Z " fill="#FBC800" transform="translate(577.765869140625,627.886474609375)"/>
<path d="M0 0 C5.94 0 11.88 0 18 0 C18.92039063 2.46984375 19.84078125 4.9396875 20.7890625 7.484375 C22.066411 10.90673537 23.34548634 14.32844856 24.625 17.75 C24.95792053 18.64037964 25.29084106 19.53075928 25.6338501 20.44812012 C31.19455155 35.30663415 36.88501151 50.11080337 42.69384766 64.87402344 C42.977099 65.59634155 43.26035034 66.31865967 43.55218506 67.06286621 C44.07772354 68.40266858 44.60528282 69.74168089 45.13531494 71.07971191 C46.30096083 74.05370052 47.222269 76.889076 48 80 C42.06 80 36.12 80 30 80 C25 67.25 25 67.25 25 65 C8.665 65.495 8.665 65.495 -8 66 C-9.65 70.29 -11.3 74.58 -13 79 C-14 80 -14 80 -17.81640625 80.09765625 C-19.39846682 80.09098089 -20.98051159 80.07901875 -22.5625 80.0625 C-23.36880859 80.05798828 -24.17511719 80.05347656 -25.00585938 80.04882812 C-27.00393756 80.03700518 -29.00197783 80.01906914 -31 80 C-28.8447444 73.300789 -26.41730931 66.7337454 -23.8671875 60.17578125 C-23.47105255 59.1530864 -23.0749176 58.13039154 -22.66677856 57.07670593 C-21.82902607 54.91555997 -20.99021061 52.7548258 -20.15039062 50.59448242 C-18.89665024 47.3682129 -17.64728472 44.14027561 -16.3984375 40.91210938 C-11.08660739 27.20988588 -5.61430916 13.58101556 0 0 Z " fill="#FBC900" transform="translate(160,628)"/>
<path d="M0 0 C18.15 0 36.3 0 55 0 C55 5.28 55 10.56 55 16 C42.46 16 29.92 16 17 16 C17 21.28 17 26.56 17 32 C19.37058594 31.98839844 21.74117188 31.97679687 24.18359375 31.96484375 C26.47045762 31.95705304 28.75732004 31.95097636 31.04418945 31.94506836 C32.63794614 31.94002843 34.23169819 31.9331965 35.82543945 31.92456055 C38.11150253 31.91248001 40.39750467 31.90676845 42.68359375 31.90234375 C43.40026718 31.89718246 44.11694061 31.89202118 44.85533142 31.88670349 C46.57063672 31.88650737 48.28581266 31.93807993 50 32 C53.54338194 35.54338194 51 41.98890121 51 47 C39.78 47 28.56 47 17 47 C17 52.94 17 58.88 17 65 C29.87 65 42.74 65 56 65 C56 70.28 56 75.56 56 81 C37.52 81 19.04 81 0 81 C0 54.27 0 27.54 0 0 Z " fill="#FDC500" transform="translate(340,749)"/>
<path d="M0 0 C5.16976718 3.99278849 10.12880046 8.01427892 13 14 C12 17 12 17 9.27734375 18.60546875 C8.17519531 19.12753906 7.07304687 19.64960937 5.9375 20.1875 C4.83277344 20.71730469 3.72804688 21.24710938 2.58984375 21.79296875 C1.30787109 22.39044922 1.30787109 22.39044922 0 23 C-5 18 -5 18 -7 15.8125 C-11.33332479 11.88542441 -15.7786509 11.5527655 -21.4375 11.6875 C-27.06283892 12.37351694 -30.77515067 14.82958842 -34.8125 18.6875 C-40.35318585 27.07768143 -41.28175099 35.93546545 -39.49609375 45.77734375 C-37.75351173 52.39915541 -35.306567 57.02550713 -29.265625 60.6328125 C-23.26827282 63.14366569 -15.90201998 63.21979112 -9.67578125 61.2734375 C-5.9230462 59.27089342 -3.39964313 56.45548611 -1 53 C3.9723422 54.49170266 8.41845739 56.60457417 13 59 C12.6756076 64.35247468 9.71879974 67.45208603 6 71 C-3.29079706 78.69749778 -15.34874879 79.87269556 -27 79 C-35.67222117 77.81543016 -44.1952839 73.60677289 -50 67 C-56.26113394 57.47156168 -58.34908916 48.96427809 -58.3125 37.6875 C-58.32861328 36.70587891 -58.34472656 35.72425781 -58.36132812 34.71289062 C-58.36928247 22.69387782 -55.16118124 14.55751454 -46.99609375 5.8671875 C-35.56276253 -5.21843955 -13.95719392 -9.27191681 0 0 Z " fill="#FCC900" transform="translate(468,752)"/>
<path d="M0 0 C4.75550673 3.27164561 9.28298289 7.4190172 11.828125 12.6796875 C11.78125 14.74609375 11.78125 14.74609375 10.828125 16.6796875 C8.68359375 18.19921875 8.68359375 18.19921875 6.015625 19.4921875 C5.14292969 19.93175781 4.27023437 20.37132812 3.37109375 20.82421875 C0.56461502 21.76833371 -0.50097362 21.90035102 -3.171875 20.6796875 C-4.734375 19.12109375 -4.734375 19.12109375 -6.171875 17.2421875 C-8.28381865 14.49321737 -9.87722729 12.86622147 -13.171875 11.6796875 C-20.43984993 10.82937024 -27.56271291 10.50633261 -33.62109375 15.046875 C-40.32532052 22.10573341 -40.60724689 31.15862104 -40.44921875 40.35546875 C-40.18507606 46.4176093 -38.78687692 51.67064419 -34.74609375 56.3203125 C-29.75878245 60.80502653 -25.03820072 62.09648431 -18.51171875 61.93359375 C-12.44910975 61.27571464 -7.6140013 58.85259402 -3.171875 54.6796875 C-2.676875 53.6896875 -2.676875 53.6896875 -2.171875 52.6796875 C1.5884235 53.26076382 4.35847532 54.33168246 7.640625 56.2421875 C8.43082031 56.69722656 9.22101563 57.15226563 10.03515625 57.62109375 C10.62683594 57.97042969 11.21851563 58.31976562 11.828125 58.6796875 C9.65604906 65.84753811 4.27826341 71.13843504 -2.171875 74.6796875 C-8.31631502 77.23698667 -13.91527647 78.20470425 -20.546875 78.1171875 C-21.79295532 78.1025647 -21.79295532 78.1025647 -23.06420898 78.08764648 C-34.08354835 77.77047358 -41.13614298 74.6306965 -49.078125 66.90234375 C-54.31267545 61.34551688 -56.29318049 55.931209 -58.171875 48.6796875 C-58.35878906 48.06351563 -58.54570312 47.44734375 -58.73828125 46.8125 C-61.27537852 34.33272425 -58.88577527 20.62918372 -51.96484375 10 C-39.43158215 -6.21951501 -17.55990345 -10.67490533 0 0 Z " fill="#FBC900" transform="translate(528.171875,631.3203125)"/>
<path d="M0 0 C21.78 0 43.56 0 66 0 C66 5.28 66 10.56 66 16 C58.08 16 50.16 16 42 16 C42 37.45 42 58.9 42 81 C36.39 81 30.78 81 25 81 C25 59.55 25 38.1 25 16 C16.75 16 8.5 16 0 16 C0 10.72 0 5.44 0 0 Z " fill="#FDC900" transform="translate(259,749)"/>
<path d="M0 0 C21.45 0 42.9 0 65 0 C65 5.28 65 10.56 65 16 C57.08 16 49.16 16 41 16 C41 37.45 41 58.9 41 81 C35.39 81 29.78 81 24 81 C24 59.55 24 38.1 24 16 C16.08 16 8.16 16 0 16 C0 10.72 0 5.44 0 0 Z " fill="#FAC800" transform="translate(619,627)"/>
<path d="M0 0 C6.57148888 7.17345733 7.47239749 14.73080887 7.3046875 24.234375 C6.69990262 31.7088958 4.60084944 36.89089882 -0.9375 42 C-6.62168314 46.70103417 -11.77169751 47.45928668 -18.99609375 47.30859375 C-25.06632265 46.68499416 -29.15026083 44.18844827 -33.3125 39.8125 C-39.45885733 31.87415293 -40.02760281 22.76787284 -39 13 C-37.11968403 6.27907574 -33.63830903 0.46371393 -27.625 -3.25 C-18.49280021 -8.01882315 -7.74588661 -6.71080154 0 0 Z " fill="#010D2A" transform="translate(787,647)"/>
<path d="M0 0 C5.61 0 11.22 0 17 0 C17 21.45 17 42.9 17 65 C28.88 65 40.76 65 53 65 C53 70.28 53 75.56 53 81 C35.51 81 18.02 81 0 81 C0 54.27 0 27.54 0 0 Z " fill="#FAC800" transform="translate(372,627)"/>
<path d="M0 0 C5.95216725 3.4947372 9.93511587 8.46615067 11.8828125 15.10546875 C12.2827268 18.09879802 12.30362747 21.02681634 12.2578125 24.04296875 C12.26941406 24.80287109 12.28101563 25.56277344 12.29296875 26.34570312 C12.26030902 32.71979286 11.18627951 38.39049942 6.98046875 43.34765625 C6.30886719 43.88648438 5.63726563 44.4253125 4.9453125 44.98046875 C3.94177734 45.81191406 3.94177734 45.81191406 2.91796875 46.66015625 C-3.56378258 51.26331938 -10.44208423 50.88913719 -18.1171875 50.10546875 C-23.84667252 48.08889774 -27.71562119 44.00772607 -31.1171875 39.10546875 C-34.51828056 30.969285 -34.62051266 20.28634966 -32.171875 11.84765625 C-29.07030478 5.31290138 -24.93757766 1.33685138 -18.1328125 -1.35546875 C-12.10044143 -2.96877729 -5.71924021 -2.46598819 0 0 Z " fill="#010D2A" transform="translate(723.1171875,764.89453125)"/>
<path d="M0 0 C5.94 0 11.88 0 18 0 C18 26.4 18 52.8 18 80 C12.06 80 6.12 80 0 80 C0 53.6 0 27.2 0 0 Z " fill="#FECC00" transform="translate(698,628)"/>
<path d="M0 0 C5.61 0 11.22 0 17 0 C17 26.73 17 53.46 17 81 C11.39 81 5.78 81 0 81 C0 54.27 0 27.54 0 0 Z " fill="#FDCB00" transform="translate(438,627)"/>
<path d="M0 0 C3.17625 -0.0825 6.3525 -0.165 9.625 -0.25 C10.6145166 -0.28641602 11.6040332 -0.32283203 12.62353516 -0.36035156 C18.25795762 -0.43096692 21.59081997 0.13327429 26 4 C28.97307695 8.45961542 28.62015709 12.77077414 28 18 C25.69658839 22.18026552 23.496263 23.65703723 19 25 C15.72352342 25.23615235 12.47019558 25.18815563 9.1875 25.125 C6.155625 25.08375 3.12375 25.0425 0 25 C0 16.75 0 8.5 0 0 Z " fill="#040D2B" transform="translate(236,643)"/>
<path d="M0 0 C3.01125 -0.0825 6.0225 -0.165 9.125 -0.25 C10.06230957 -0.28641602 10.99961914 -0.32283203 11.96533203 -0.36035156 C17.47922855 -0.43316553 20.67167183 0.25147903 25 4 C27.97307695 8.45961542 27.62015709 12.77077414 27 18 C24.69658163 22.18027777 22.49086326 23.64438037 18 25 C14.88963815 25.2342304 11.80429548 25.1884648 8.6875 25.125 C5.820625 25.08375 2.95375 25.0425 0 25 C0 16.75 0 8.5 0 0 Z " fill="#010B2B" transform="translate(313,643)"/>
<path d="M0 0 C5.53846154 3.07692308 5.53846154 3.07692308 7 6 C7.55112923 10.59876684 7.61753151 13.97787887 5.1875 18 C2.37384417 20.57248533 0.45347543 20.94866316 -3.3125 21.375 C-8.12514994 20.88557797 -9.83041368 19.62238437 -13 16 C-14.43064673 12.03574984 -14.45050933 9.06699577 -12.8125 5.1875 C-8.87228441 0.43206739 -6.31888629 -0.76262421 0 0 Z " fill="#050D2C" transform="translate(425,406)"/>
<path d="M0 0 C2.97239241 1.78476241 5.42604027 3.85208055 7 7 C7.67660495 12.86390959 7.67660495 12.86390959 5.953125 15.7578125 C4.16405507 17.93626824 2.54084375 19.72957812 0 21 C-7.75862069 21.43103448 -7.75862069 21.43103448 -11 19 C-14.1529475 15.05881562 -14.53255319 11.97049643 -14 7 C-12.74544028 4.17724064 -11.71615278 2.53711459 -9.25 0.6875 C-5.9260257 -0.32815881 -3.46313738 -0.41796486 0 0 Z " fill="#030C2C" transform="translate(474,494)"/>
<path d="M0 0 C0.66 0 1.32 0 2 0 C1.67 26.07 1.34 52.14 1 79 C18.49 79 35.98 79 54 79 C54 75.04 54 71.08 54 67 C41.46 67 28.92 67 16 67 C16 60.07 16 53.14 16 46 C25.24 46 34.48 46 44 46 C44 46.33 44 46.66 44 47 C35.09 47 26.18 47 17 47 C17 52.94 17 58.88 17 65 C29.87 65 42.74 65 56 65 C56 70.28 56 75.56 56 81 C37.52 81 19.04 81 0 81 C0 54.27 0 27.54 0 0 Z " fill="#E2D303" transform="translate(340,749)"/>
<path d="M0 0 C2.46465258 2.46465258 3.0312506 4.51813363 4.1640625 7.8125 C4.56367187 8.97007812 4.96328125 10.12765625 5.375 11.3203125 C5.99375 13.14175781 5.99375 13.14175781 6.625 15 C7.04523437 16.21429687 7.46546875 17.42859375 7.8984375 18.6796875 C11 27.72255479 11 27.72255479 11 30 C4.07 30 -2.86 30 -10 30 C-7.75 19.875 -7.75 19.875 -6.0546875 15.52734375 C-5.70019531 14.60888672 -5.34570312 13.69042969 -4.98046875 12.74414062 C-4.43326172 11.35485352 -4.43326172 11.35485352 -3.875 9.9375 C-3.50246094 8.97650391 -3.12992188 8.01550781 -2.74609375 7.02539062 C-1.83644515 4.68129617 -0.92101046 2.33964819 0 0 Z " fill="#040C2A" transform="translate(584,648)"/>
<path d="M0 0 C2.46465258 2.46465258 3.0312506 4.51813363 4.1640625 7.8125 C4.56367188 8.97007812 4.96328125 10.12765625 5.375 11.3203125 C5.99375 13.14175781 5.99375 13.14175781 6.625 15 C7.04523438 16.21429687 7.46546875 17.42859375 7.8984375 18.6796875 C11 27.72255479 11 27.72255479 11 30 C4.07 30 -2.86 30 -10 30 C-7.46273527 19.7016902 -3.75373303 9.90264656 0 0 Z " fill="#040C2C" transform="translate(168,648)"/>
<path d="M0 0 C17.49 0 34.98 0 53 0 C53 4.95 53 9.9 53 15 C40.46 15 27.92 15 15 15 C15 14.67 15 14.34 15 14 C26.88 14 38.76 14 51 14 C51 10.04 51 6.08 51 2 C34.17 2 17.34 2 0 2 C0 1.34 0 0.68 0 0 Z " fill="#FDDF00" transform="translate(342,749)"/>
<path d="M0 0 C0.33 0 0.66 0 1 0 C1 38.94 1 77.88 1 118 C-2.96 117.505 -2.96 117.505 -7 117 C-7 116.67 -7 116.34 -7 116 C-4.03 115.505 -4.03 115.505 -1 115 C-1.00222061 113.78050156 -1.00444122 112.56100311 -1.00672913 111.30455017 C-1.02708683 99.75705012 -1.04203262 88.20955375 -1.05181217 76.66203976 C-1.05700909 70.72675256 -1.06404815 64.79147997 -1.07543945 58.85620117 C-1.08638252 53.11791912 -1.09230081 47.37965102 -1.09487724 41.64135933 C-1.09671106 39.4627517 -1.1002916 37.28414475 -1.10573006 35.10554314 C-1.13386382 23.35776236 -1.0245751 11.70917041 0 0 Z " fill="#010132" transform="translate(603,401)"/>
<path d="M0 0 C22.44 0 44.88 0 68 0 C68.495 1.98 68.495 1.98 69 4 C68.34 4.66 67.68 5.32 67 6 C67 4.35 67 2.7 67 1 C45.22 1 23.44 1 1 1 C1 6.28 1 11.56 1 17 C9.25 17 17.5 17 26 17 C26.04125 20.42375 26.0825 23.8475 26.125 27.375 C26.14320801 28.45313965 26.16141602 29.5312793 26.18017578 30.64208984 C26.1851709 31.48980957 26.19016602 32.3375293 26.1953125 33.2109375 C26.20578613 34.08024902 26.21625977 34.94956055 26.22705078 35.84521484 C26 38 26 38 24 40 C24 33.07 24 26.14 24 19 C16.08 18.67 8.16 18.34 0 18 C0 12.06 0 6.12 0 0 Z " fill="#000133" transform="translate(258,748)"/>
<path d="M0 0 C1.58206057 0.00667536 3.16410534 0.0186375 4.74609375 0.03515625 C5.55240234 0.03966797 6.35871094 0.04417969 7.18945312 0.04882812 C9.18753131 0.06065107 11.18557158 0.07858711 13.18359375 0.09765625 C13.18359375 0.75765625 13.18359375 1.41765625 13.18359375 2.09765625 C7.90359375 2.09765625 2.62359375 2.09765625 -2.81640625 2.09765625 C-2.81640625 18.59765625 -2.81640625 35.09765625 -2.81640625 52.09765625 C-3.47640625 52.09765625 -4.13640625 52.09765625 -4.81640625 52.09765625 C-5.79407558 49.16464826 -5.91527274 47.41054209 -5.85400391 44.36669922 C-5.83713531 43.40915741 -5.82026672 42.4516156 -5.80288696 41.46505737 C-5.77898895 40.43373688 -5.75509094 39.40241638 -5.73046875 38.33984375 C-5.70922943 37.28105011 -5.68799011 36.22225647 -5.66610718 35.13137817 C-5.61984644 32.89368258 -5.57091827 30.65604078 -5.51953125 28.41845703 C-5.44156383 24.97960654 -5.37449386 21.54066306 -5.30859375 18.1015625 C-5.26237187 15.93097558 -5.21551855 13.76040199 -5.16796875 11.58984375 C-5.1481192 10.55447479 -5.12826965 9.51910583 -5.1078186 8.45236206 C-5.08464569 7.50112457 -5.06147278 6.54988708 -5.03759766 5.56982422 C-5.01903717 4.7283786 -5.00047668 3.88693298 -4.98135376 3.01998901 C-4.67436307 -0.55774468 -3.77349941 0.09655833 0 0 Z " fill="#241D27" transform="translate(642.81640625,747.90234375)"/>
<path d="M0 0 C18.81 0 37.62 0 57 0 C57.495 0.99 57.495 0.99 58 2 C29.785 2.495 29.785 2.495 1 3 C0.67 2.01 0.34 1.02 0 0 Z " fill="#E5C303" transform="translate(493,181)"/>
<path d="M0 0 C6.6 0 13.2 0 20 0 C20 0.33 20 0.66 20 1 C16.00204108 1.95619733 12.29196078 2.1039592 8.1875 2.0625 C7.02605469 2.05347656 5.86460937 2.04445313 4.66796875 2.03515625 C3.78753906 2.02355469 2.90710938 2.01195312 2 2 C2 5.96 2 9.92 2 14 C9.59 14 17.18 14 25 14 C25 14.66 25 15.32 25 16 C16.75 16 8.5 16 0 16 C0 10.72 0 5.44 0 0 Z " fill="#EECF02" transform="translate(259,749)"/>
<path d="M0 0 C1.43088528 2.86177057 0.59991697 4.93375773 0 8 C-0.58491211 8.02505615 -1.16982422 8.0501123 -1.77246094 8.07592773 C-4.43184471 8.19222962 -7.09090403 8.31480067 -9.75 8.4375 C-11.13058594 8.49647461 -11.13058594 8.49647461 -12.5390625 8.55664062 C-13.87324219 8.61948242 -13.87324219 8.61948242 -15.234375 8.68359375 C-16.05131836 8.72025146 -16.86826172 8.75690918 -17.70996094 8.79467773 C-20.31267611 8.96842533 -20.31267611 8.96842533 -24 10 C-24 30.13 -24 50.26 -24 71 C-24.33 71 -24.66 71 -25 71 C-25 49.88 -25 28.76 -25 7 C-17.08 7 -9.16 7 -1 7 C-1 5.02 -1 3.04 -1 1 C-0.67 0.67 -0.34 0.34 0 0 Z " fill="#000033" transform="translate(326,758)"/>
<path d="M0 0 C11.88 0 23.76 0 36 0 C36 0.33 36 0.66 36 1 C25.11 1 14.22 1 3 1 C2.67 5.62 2.34 10.24 2 15 C12.56 15 23.12 15 34 15 C34 15.33 34 15.66 34 16 C22.78 16 11.56 16 0 16 C0 10.72 0 5.44 0 0 Z " fill="#000133" transform="translate(357,765)"/>
<path d="M0 0 C6.6 0 13.2 0 20 0 C20 0.33 20 0.66 20 1 C14.06 1 8.12 1 2 1 C2 9.25 2 17.5 2 26 C-3.94 26 -9.88 26 -16 26 C-15.67 25.34 -15.34 24.68 -15 24 C-10.05 24 -5.1 24 0 24 C0 16.08 0 8.16 0 0 Z " fill="#E6CA03" transform="translate(311,682)"/>
<path d="M0 0 C4.68139254 -0.02465288 9.36274759 -0.04283739 14.04418945 -0.05493164 C15.63794614 -0.05997157 17.23169819 -0.0668035 18.82543945 -0.07543945 C21.11150253 -0.08751999 23.39750467 -0.09323155 25.68359375 -0.09765625 C26.40026718 -0.10281754 27.11694061 -0.10797882 27.85533142 -0.11329651 C29.57063672 -0.11349263 31.28581266 -0.06192007 33 0 C34 1 34 1 34.09765625 4.16015625 C34.08605469 5.44792969 34.07445312 6.73570312 34.0625 8.0625 C34.05347656 9.35285156 34.04445313 10.64320313 34.03515625 11.97265625 C34.02355469 12.97167969 34.01195312 13.97070312 34 15 C31.69 15 29.38 15 27 15 C27 14.67 27 14.34 27 14 C28.65 14 30.3 14 32 14 C32 10.04 32 6.08 32 2 C21.44 1.67 10.88 1.34 0 1 C0 0.67 0 0.34 0 0 Z " fill="#C3A907" transform="translate(357,781)"/>
<path d="M0 0 C0.93045933 2.55144824 1.08564091 3.74006478 0.22265625 6.359375 C-0.8515625 8.57291667 -1.92578125 10.78645833 -3 13 C-8.61 13 -14.22 13 -20 13 C-19.67 12.01 -19.34 11.02 -19 10 C-13.72 10.33 -8.44 10.66 -3 11 C-2.67 9.35 -2.34 7.7 -2 6 C-1.35610218 3.99255385 -0.69437747 1.99054876 0 0 Z " fill="#F3D301" transform="translate(565,695)"/>
<path d="M0 0 C0.66 0.33 1.32 0.66 2 1 C1.2884375 1.804375 1.2884375 1.804375 0.5625 2.625 C-1.18308804 4.90855356 -1.18308804 4.90855356 -1.375 7.6875 C-2.2551469 12.35227859 -4.57099308 15.96659367 -7 20 C-8.37774473 15.8667658 -6.79115924 13.26383819 -5.1875 9.4375 C-4.91357422 8.75236328 -4.63964844 8.06722656 -4.35742188 7.36132812 C-3.17066391 4.46131286 -2.2368565 2.2368565 0 0 Z " fill="#F4D602" transform="translate(365,183)"/>
<path d="M0 0 C0.33 0 0.66 0 1 0 C1 8.58 1 17.16 1 26 C0.67 26 0.34 26 0 26 C-1.61730613 16.78135506 -2.47973366 9.17501456 0 0 Z " fill="#000232" transform="translate(218,629)"/>
<path d="M0 0 C2.35953094 2.35953094 2.49141413 3.77895617 3 7 C2.01 7 1.02 7 0 7 C-0.66 8.98 -1.32 10.96 -2 13 C-2.66 12.67 -3.32 12.34 -4 12 C-3.52309796 10.37433394 -3.04340334 8.74948689 -2.5625 7.125 C-2.29566406 6.22007812 -2.02882813 5.31515625 -1.75390625 4.3828125 C-1 2 -1 2 0 0 Z " fill="#13112D" transform="translate(584,648)"/>
<path d="M0 0 C0.66 0.33 1.32 0.66 2 1 C-0.60944442 3.88902775 -2.15687538 5.38510006 -6 6 C-8.59373914 6.06898242 -11.15810197 6.09434752 -13.75 6.0625 C-14.44738281 6.05798828 -15.14476562 6.05347656 -15.86328125 6.04882812 C-17.57555803 6.0371002 -19.28779033 6.01916653 -21 6 C-21 5.67 -21 5.34 -21 5 C-20.154375 4.97421875 -19.30875 4.9484375 -18.4375 4.921875 C-11.16230589 4.55811529 -6.31407196 3.57400299 0 0 Z " fill="#F7E101" transform="translate(785,689)"/>
<path d="M0 0 C2 2 2 2 3 7 C-3.93 7 -10.86 7 -18 7 C-18 6.67 -18 6.34 -18 6 C-12.06 6 -6.12 6 0 6 C0 4.02 0 2.04 0 0 Z " fill="#030236" transform="translate(592,671)"/>
<path d="M0 0 C0.33 0 0.66 0 1 0 C1 2.97 1 5.94 1 9 C0.34 9 -0.32 9 -1 9 C-1.103125 9.61875 -1.20625 10.2375 -1.3125 10.875 C-2 13 -2 13 -5 15 C-1.92482916 4.44191344 -1.92482916 4.44191344 0 0 Z " fill="#0E0E2D" transform="translate(334,451)"/>
<path d="M0 0 C1.27099045 3.81297136 0.45398157 5.3267834 -1 9 C-1.99 10.485 -1.99 10.485 -3 12 C-3.66 12 -4.32 12 -5 12 C-4.54738642 10.56068883 -4.08767021 9.12361001 -3.625 7.6875 C-3.24214844 6.48673828 -3.24214844 6.48673828 -2.8515625 5.26171875 C-2 3 -2 3 0 0 Z " fill="#F0D103" transform="translate(249,472)"/>
<path d="M0 0 C0.93045933 2.55144824 1.08564091 3.74006478 0.22265625 6.359375 C-0.16019531 7.14828125 -0.54304687 7.9371875 -0.9375 8.75 C-1.50791016 9.94882812 -1.50791016 9.94882812 -2.08984375 11.171875 C-2.39019531 11.77515625 -2.69054687 12.3784375 -3 13 C-3.66 13 -4.32 13 -5 13 C-4.54554036 11.58208592 -4.08625056 10.16571954 -3.625 8.75 C-3.24214844 7.56664062 -3.24214844 7.56664062 -2.8515625 6.359375 C-2.04826333 4.13372042 -1.10288338 2.09068328 0 0 Z " fill="#ECD102" transform="translate(574,633)"/>
<path d="M0 0 C0.66 0.66 1.32 1.32 2 2 C0.40012144 3.31772362 -1.20505966 4.62901137 -2.8125 5.9375 C-3.70582031 6.66839844 -4.59914063 7.39929688 -5.51953125 8.15234375 C-8 10 -8 10 -11 11 C-9.84625622 7.53876866 -8.96327708 6.98850152 -6.0625 4.9375 C-3.85557073 3.36341071 -1.92088796 1.92088796 0 0 Z " fill="#030430" transform="translate(445,433)"/>
<path d="M0 0 C8.35010941 2.3107221 8.35010941 2.3107221 11.0625 5.1875 C11.371875 5.785625 11.68125 6.38375 12 7 C7.97372024 7 6.26696313 5.26687238 3 3 C1.6808418 2.30570621 0.35350594 1.62469505 -1 1 C-0.67 0.67 -0.34 0.34 0 0 Z " fill="#EFD202" transform="translate(718,762)"/>
<path d="M0 0 C0.66 1.32 1.32 2.64 2 4 C-3.94 4 -9.88 4 -16 4 C-16 3.67 -16 3.34 -16 3 C-11.05 3 -6.1 3 -1 3 C-0.67 2.01 -0.34 1.02 0 0 Z " fill="#E2B703" transform="translate(622,704)"/>
<path d="M0 0 C1.5 1.375 1.5 1.375 3 3 C3 3.66 3 4.32 3 5 C-2.28 5 -7.56 5 -13 5 C-13 4.67 -13 4.34 -13 4 C-8.71 4 -4.42 4 0 4 C0 2.68 0 1.36 0 0 Z " fill="#E4BA02" transform="translate(205,703)"/>
<path d="M0 0 C0.33 0 0.66 0 1 0 C1.13277344 0.67546875 1.26554688 1.3509375 1.40234375 2.046875 C1.57894531 2.93890625 1.75554688 3.8309375 1.9375 4.75 C2.11152344 5.63171875 2.28554688 6.5134375 2.46484375 7.421875 C2.92368488 9.63235053 3.43336074 11.81512068 4 14 C3.34 14 2.68 14 2 14 C-0.63091471 10.05362794 -1.40815007 6.27397897 -0.5625 1.5625 C-0.376875 1.046875 -0.19125 0.53125 0 0 Z " fill="#191829" transform="translate(672,795)"/>
<path d="M0 0 C2.35953094 2.35953094 2.49141413 3.77895617 3 7 C1.68 7.33 0.36 7.66 -1 8 C-2.2077558 4.37673261 -1.54311128 3.35853631 0 0 Z " fill="#15122E" transform="translate(168,648)"/>
<path d="M0 0 C-1.24993996 3.74981988 -2.7230706 4.86618551 -6 7 C-8.16796875 6.609375 -8.16796875 6.609375 -10 6 C-8.71283353 4.99421411 -7.42011342 3.99553202 -6.125 3 C-5.40570313 2.443125 -4.68640625 1.88625 -3.9453125 1.3125 C-2 0 -2 0 0 0 Z " fill="#F6D901" transform="translate(467,808)"/>
<path d="M0 0 C2 2 2 2 3 5 C3.66 5.33 4.32 5.66 5 6 C5.625 8.0625 5.625 8.0625 6 10 C4.68 9.67 3.36 9.34 2 9 C1.34 6.03 0.68 3.06 0 0 Z " fill="#F5D801" transform="translate(425,296)"/>
<path d="M0 0 C0.598125 0.309375 1.19625 0.61875 1.8125 0.9375 C4.08956772 2.10209704 4.08956772 2.10209704 7 3 C8.6875 5.0625 8.6875 5.0625 10 7 C7.29068581 6.84518205 5.53415961 6.51827919 3.5546875 4.59765625 C2.32320358 3.10228292 1.1570163 1.5537076 0 0 Z " fill="#030431" transform="translate(753,685)"/>
<path d="M0 0 C3.36720387 1.39332574 4.9859524 2.9789286 7 6 C6.01 6.33 5.02 6.66 4 7 C1.77810176 4.77810176 1.07401108 2.91517292 0 0 Z " fill="#050831" transform="translate(518,645)"/>
</svg>
